G04 #@! TF.GenerationSoftware,KiCad,Pcbnew,(5.0.0)*
G04 #@! TF.CreationDate,2019-11-03T02:20:17+01:00*
G04 #@! TF.ProjectId,baum2,6261756D322E6B696361645F70636200,rev?*
G04 #@! TF.SameCoordinates,Original*
G04 #@! TF.FileFunction,Copper,L1,Top,Signal*
G04 #@! TF.FilePolarity,Positive*
%FSLAX46Y46*%
G04 Gerber Fmt 4.6, Leading zero omitted, Abs format (unit mm)*
G04 Created by KiCad (PCBNEW (5.0.0)) date 11/03/19 02:20:17*
%MOMM*%
%LPD*%
G01*
G04 APERTURE LIST*
G04 #@! TA.AperFunction,ComponentPad*
%ADD10R,3.000000X2.000000*%
G04 #@! TD*
G04 #@! TA.AperFunction,ComponentPad*
%ADD11C,2.000000*%
G04 #@! TD*
G04 #@! TA.AperFunction,Conductor*
%ADD12C,0.100000*%
G04 #@! TD*
G04 #@! TA.AperFunction,Conductor*
%ADD13C,1.500000*%
G04 #@! TD*
G04 APERTURE END LIST*
D10*
G04 #@! TO.P,J1,1*
G04 #@! TO.N,Net-(J1-Pad1)*
X51435000Y-40250000D03*
G04 #@! TO.P,J1,2*
G04 #@! TO.N,Net-(J1-Pad2)*
X51435000Y-43050000D03*
G04 #@! TO.P,J1,3*
G04 #@! TO.N,Net-(J1-Pad3)*
X51435000Y-45850000D03*
G04 #@! TO.P,J1,4*
G04 #@! TO.N,Net-(J1-Pad4)*
X51435000Y-48650000D03*
G04 #@! TD*
D11*
G04 #@! TO.P,J2,4*
G04 #@! TO.N,Net-(J1-Pad4)*
X51539122Y-30741958D03*
D12*
G04 #@! TD*
G04 #@! TO.N,Net-(J1-Pad4)*
G04 #@! TO.C,J2*
G36*
X49859605Y-31397110D02*
X51580335Y-28939653D01*
X53218639Y-30086806D01*
X51497909Y-32544263D01*
X49859605Y-31397110D01*
X49859605Y-31397110D01*
G37*
D11*
G04 #@! TO.P,J2,3*
G04 #@! TO.N,Net-(J1-Pad3)*
X53832748Y-32347972D03*
D12*
G04 #@! TD*
G04 #@! TO.N,Net-(J1-Pad3)*
G04 #@! TO.C,J2*
G36*
X52153231Y-33003124D02*
X53873961Y-30545667D01*
X55512265Y-31692820D01*
X53791535Y-34150277D01*
X52153231Y-33003124D01*
X52153231Y-33003124D01*
G37*
D11*
G04 #@! TO.P,J2,2*
G04 #@! TO.N,Net-(J1-Pad2)*
X56126374Y-33953986D03*
D12*
G04 #@! TD*
G04 #@! TO.N,Net-(J1-Pad2)*
G04 #@! TO.C,J2*
G36*
X54446857Y-34609138D02*
X56167587Y-32151681D01*
X57805891Y-33298834D01*
X56085161Y-35756291D01*
X54446857Y-34609138D01*
X54446857Y-34609138D01*
G37*
D11*
G04 #@! TO.P,J2,1*
G04 #@! TO.N,Net-(J1-Pad1)*
X58420000Y-35560000D03*
D12*
G04 #@! TD*
G04 #@! TO.N,Net-(J1-Pad1)*
G04 #@! TO.C,J2*
G36*
X56740483Y-36215152D02*
X58461213Y-33757695D01*
X60099517Y-34904848D01*
X58378787Y-37362305D01*
X56740483Y-36215152D01*
X56740483Y-36215152D01*
G37*
D13*
G04 #@! TO.N,Net-(J1-Pad3)*
X54980480Y-31200240D02*
X53832748Y-32347972D01*
X55279049Y-30901671D02*
X54980480Y-31200240D01*
X61349527Y-37885475D02*
X61349527Y-34387075D01*
X53385002Y-45850000D02*
X61349527Y-37885475D01*
X51435000Y-45850000D02*
X53385002Y-45850000D01*
X57864123Y-30901671D02*
X55279049Y-30901671D01*
X61349527Y-34387075D02*
X57864123Y-30901671D01*
G04 #@! TO.N,Net-(J1-Pad4)*
X54435000Y-48650000D02*
X63349537Y-39735463D01*
X53379420Y-28901660D02*
X52686854Y-29594226D01*
X52686854Y-29594226D02*
X51539122Y-30741958D01*
X58692554Y-28901660D02*
X53379420Y-28901660D01*
X63349537Y-33558643D02*
X58692554Y-28901660D01*
X51435000Y-48650000D02*
X54435000Y-48650000D01*
X63349537Y-39735463D02*
X63349537Y-33558643D01*
G04 #@! TD*
M02*
