G04 #@! TF.GenerationSoftware,KiCad,Pcbnew,(5.0.0)*
G04 #@! TF.CreationDate,2019-11-03T02:33:36+01:00*
G04 #@! TF.ProjectId,baum3,6261756D332E6B696361645F70636200,rev?*
G04 #@! TF.SameCoordinates,Original*
G04 #@! TF.FileFunction,Copper,L2,Bot,Signal*
G04 #@! TF.FilePolarity,Positive*
%FSLAX46Y46*%
G04 Gerber Fmt 4.6, Leading zero omitted, Abs format (unit mm)*
G04 Created by KiCad (PCBNEW (5.0.0)) date 11/03/19 02:33:36*
%MOMM*%
%LPD*%
G01*
G04 APERTURE LIST*
G04 #@! TA.AperFunction,ComponentPad*
%ADD10C,2.000000*%
G04 #@! TD*
G04 #@! TA.AperFunction,Conductor*
%ADD11C,0.100000*%
G04 #@! TD*
G04 #@! TA.AperFunction,Conductor*
%ADD12C,1.500000*%
G04 #@! TD*
G04 APERTURE END LIST*
D10*
G04 #@! TO.P,J1,1*
G04 #@! TO.N,Net-(J1-Pad1)*
X68437748Y-27977028D03*
D11*
G04 #@! TD*
G04 #@! TO.N,Net-(J1-Pad1)*
G04 #@! TO.C,J1*
G36*
X68396535Y-26174723D02*
X70117265Y-28632180D01*
X68478961Y-29779333D01*
X66758231Y-27321876D01*
X68396535Y-26174723D01*
X68396535Y-26174723D01*
G37*
D10*
G04 #@! TO.P,J1,2*
G04 #@! TO.N,Net-(J1-Pad2)*
X70731374Y-26371014D03*
D11*
G04 #@! TD*
G04 #@! TO.N,Net-(J1-Pad2)*
G04 #@! TO.C,J1*
G36*
X70690161Y-24568709D02*
X72410891Y-27026166D01*
X70772587Y-28173319D01*
X69051857Y-25715862D01*
X70690161Y-24568709D01*
X70690161Y-24568709D01*
G37*
D10*
G04 #@! TO.P,J1,3*
G04 #@! TO.N,Net-(J1-Pad3)*
X73025000Y-24765000D03*
D11*
G04 #@! TD*
G04 #@! TO.N,Net-(J1-Pad3)*
G04 #@! TO.C,J1*
G36*
X72983787Y-22962695D02*
X74704517Y-25420152D01*
X73066213Y-26567305D01*
X71345483Y-24109848D01*
X72983787Y-22962695D01*
X72983787Y-22962695D01*
G37*
D10*
G04 #@! TO.P,J1,4*
G04 #@! TO.N,Net-(J1-Pad4)*
X75318626Y-23158986D03*
D11*
G04 #@! TD*
G04 #@! TO.N,Net-(J1-Pad4)*
G04 #@! TO.C,J1*
G36*
X75277413Y-21356681D02*
X76998143Y-23814138D01*
X75359839Y-24961291D01*
X73639109Y-22503834D01*
X75277413Y-21356681D01*
X75277413Y-21356681D01*
G37*
D10*
G04 #@! TO.P,J2,4*
G04 #@! TO.N,Net-(J1-Pad4)*
X56619122Y-23121958D03*
D11*
G04 #@! TD*
G04 #@! TO.N,Net-(J1-Pad4)*
G04 #@! TO.C,J2*
G36*
X54939605Y-23777110D02*
X56660335Y-21319653D01*
X58298639Y-22466806D01*
X56577909Y-24924263D01*
X54939605Y-23777110D01*
X54939605Y-23777110D01*
G37*
D10*
G04 #@! TO.P,J2,3*
G04 #@! TO.N,Net-(J1-Pad3)*
X58912748Y-24727972D03*
D11*
G04 #@! TD*
G04 #@! TO.N,Net-(J1-Pad3)*
G04 #@! TO.C,J2*
G36*
X57233231Y-25383124D02*
X58953961Y-22925667D01*
X60592265Y-24072820D01*
X58871535Y-26530277D01*
X57233231Y-25383124D01*
X57233231Y-25383124D01*
G37*
D10*
G04 #@! TO.P,J2,2*
G04 #@! TO.N,Net-(J1-Pad2)*
X61206374Y-26333986D03*
D11*
G04 #@! TD*
G04 #@! TO.N,Net-(J1-Pad2)*
G04 #@! TO.C,J2*
G36*
X59526857Y-26989138D02*
X61247587Y-24531681D01*
X62885891Y-25678834D01*
X61165161Y-28136291D01*
X59526857Y-26989138D01*
X59526857Y-26989138D01*
G37*
D10*
G04 #@! TO.P,J2,1*
G04 #@! TO.N,Net-(J1-Pad1)*
X63500000Y-27940000D03*
D11*
G04 #@! TD*
G04 #@! TO.N,Net-(J1-Pad1)*
G04 #@! TO.C,J2*
G36*
X61820483Y-28595152D02*
X63541213Y-26137695D01*
X65179517Y-27284848D01*
X63458787Y-29742305D01*
X61820483Y-28595152D01*
X61820483Y-28595152D01*
G37*
D12*
G04 #@! TO.N,Net-(J1-Pad1)*
X67290016Y-26829296D02*
X68437748Y-27977028D01*
X67252988Y-26792268D02*
X67290016Y-26829296D01*
X64647732Y-26792268D02*
X67252988Y-26792268D01*
X63500000Y-27940000D02*
X64647732Y-26792268D01*
G04 #@! TO.N,Net-(J1-Pad3)*
X71877268Y-23617268D02*
X73025000Y-24765000D01*
X71541671Y-23281671D02*
X71877268Y-23617268D01*
X60359049Y-23281671D02*
X71541671Y-23281671D01*
X58912748Y-24727972D02*
X60359049Y-23281671D01*
G04 #@! TD*
M02*
